{
  "accessors": [
    {
      "bufferView": 2,
      "componentType": 5126,
      "count": 950,
      "max": [
        941.4335327148438,
        100.57510375976563,
        82.18225860595703
      ],
      "min": [
        -878.8995971679688,
        -63.896202087402344,
        -82.18225860595703
      ],
      "type": "VEC3"
    },
    {
      "bufferView": 2,
      "byteOffset": 11400,
      "componentType": 5126,
      "count": 950,
      "max": [
        0.9989517331123352,
        0.9997919797897339,
        0.9999796152114868
      ],
      "min": [
        -0.9999998807907104,
        -0.9999462366104126,
        -0.9999708533287048
      ],
      "type": "VEC3"
    },
    {
      "bufferView": 3,
      "componentType": 5126,
      "count": 950,
      "max": [
        0.9971945285797119,
        0.9999836683273315,
        0.9999985098838806,
        1.0
      ],
      "min": [
        -0.999967634677887,
        -0.9999958872795105,
        -0.9999871850013733,
        -1.0
      ],
      "type": "VEC4"
    },
    {
      "bufferView": 1,
      "componentType": 5126,
      "count": 950,
      "max": [
        0.9287989735603333,
        1.0
      ],
      "min": [
        0.0,
        0.0
      ],
      "type": "VEC2"
    },
    {
      "bufferView": 0,
      "componentType": 5125,
      "count": 4596,
      "type": "SCALAR"
    }
  ],
  "asset": {
    "extras": {
      "author": "RomanMaksy (https://sketchfab.com/RomanMaksy)",
      "license": "CC-BY-4.0 (http://creativecommons.org/licenses/by/4.0/)",
      "source": "https://sketchfab.com/3d-models/cigarette-daily3d-eff40b1550e0466a9c3273a519139143",
      "title": "Cigarette - daily3D"
    },
    "generator": "Sketchfab-12.65.0",
    "version": "2.0"
  },
  "bufferViews": [
    {
      "buffer": 0,
      "byteLength": 18384,
      "name": "floatBufferViews",
      "target": 34963
    },
    {
      "buffer": 0,
      "byteLength": 7600,
      "byteOffset": 18384,
      "byteStride": 8,
      "name": "floatBufferViews",
      "target": 34962
    },
    {
      "buffer": 0,
      "byteLength": 22800,
      "byteOffset": 25984,
      "byteStride": 12,
      "name": "floatBufferViews",
      "target": 34962
    },
    {
      "buffer": 0,
      "byteLength": 15200,
      "byteOffset": 48784,
      "byteStride": 16,
      "name": "floatBufferViews",
      "target": 34962
    }
  ],
  "buffers": [
    {
      "byteLength": 63984,
      "uri": "scene.bin"
    }
  ],
  "images": [
    {
      "uri": "textures/default_baseColor.jpeg"
    },
    {
      "uri": "textures/default_metallicRoughness.png"
    },
    {
      "uri": "textures/default_emissive.jpeg"
    },
    {
      "uri": "textures/default_normal.png"
    }
  ],
  "materials": [
    {
      "emissiveFactor": [
        1.0,
        1.0,
        1.0
      ],
      "emissiveTexture": {
        "index": 2
      },
      "name": "default",
      "normalTexture": {
        "index": 3
      },
      "occlusionTexture": {
        "index": 1
      },
      "pbrMetallicRoughness": {
        "baseColorTexture": {
          "index": 0
        },
        "metallicRoughnessTexture": {
          "index": 1
        }
      }
    }
  ],
  "meshes": [
    {
      "name": "defaultMaterial",
      "primitives": [
        {
          "attributes": {
            "NORMAL": 1,
            "POSITION": 0,
            "TANGENT": 2,
            "TEXCOORD_0": 3
          },
          "indices": 4,
          "material": 0,
          "mode": 4
        }
      ]
    }
  ],
  "nodes": [
    {
      "children": [
        1
      ],
      "matrix": [
        6.666666740784422e-05,
        0.0,
        0.0,
        0.0,
        0.0,
        -2.7789612920090388e-05,
        -6.059852905887639e-05,
        0.0,
        0.0,
        6.059852905887639e-05,
        -2.7789612920090388e-05,
        0.0,
        0.0,
        1.669313192367552,
        7.644697189331055,
        1.0
      ],
      "name": "Sketchfab_model"
    },
    {
      "children": [
        2
      ],
      "matrix": [
        1.0,
        0.0,
        0.0,
        0.0,
        0.0,
        -4.371139006309477e-08,
        0.999999999999999,
        0.0,
        0.0,
        -0.999999999999999,
        -4.371139006309477e-08,
        0.0,
        0.0,
        0.0,
        0.0,
        1.0
      ],
      "name": "Collada visual scene group"
    },
    {
      "children": [
        3
      ],
      "name": "ember"
    },
    {
      "mesh": 0,
      "name": "defaultMaterial"
    }
  ],
  "samplers": [
    {
      "magFilter": 9729,
      "minFilter": 9987,
      "wrapS": 10497,
      "wrapT": 10497
    }
  ],
  "scene": 0,
  "scenes": [
    {
      "name": "Sketchfab_Scene",
      "nodes": [
        0
      ]
    }
  ],
  "textures": [
    {
      "sampler": 0,
      "source": 0
    },
    {
      "sampler": 0,
      "source": 1
    },
    {
      "sampler": 0,
      "source": 2
    },
    {
      "sampler": 0,
      "source": 3
    }
  ]
}
